<?xml version="1.0" encoding="iso-8859-1"?>
<!-- Generator: Adobe Illustrator 16.0.0, SVG Export Plug-In . SVG Version: 6.00 Build 0)  -->
<!DOCTYPE svg PUBLIC "-//W3C//DTD SVG 1.1//EN" "http://www.w3.org/Graphics/SVG/1.1/DTD/svg11.dtd">
<svg xmlns="http://www.w3.org/2000/svg" xmlns:xlink="http://www.w3.org/1999/xlink" version="1.1" id="Capa_1" x="0px" y="0px" width="512px" height="512px" viewBox="0 0 844.9 844.9" style="enable-background:new 0 0 844.9 844.9;" xml:space="preserve">
<g>
	<path d="M16.439,563.801l79.8,138.699c8.3,14.4,26.6,19.301,41,11l175.2-100.801V814.9c0,16.6,13.4,30,30,30h160   c16.6,0,30-13.4,30-30V612.699l175.2,100.9c14.399,8.301,32.7,3.301,41-11l79.8-138.799c8.3-14.4,3.3-32.701-11-41L642.939,422.4   l174.5-100.5c14.4-8.3,19.3-26.6,11-41l-79.8-138.7c-8.3-14.4-26.601-19.3-41-11l-175.2,100.9V30c0-16.6-13.4-30-30-30h-160   c-16.6,0-30,13.4-30,30v202.2l-175.2-100.9c-14.4-8.3-32.7-3.3-41,11L16.439,281c-8.3,14.4-3.3,32.7,11,41l174.5,100.4   l-174.5,100.5C13.14,531.1,8.14,549.5,16.439,563.801z" fill="#FFFFFF"/>
</g>
<g>
</g>
<g>
</g>
<g>
</g>
<g>
</g>
<g>
</g>
<g>
</g>
<g>
</g>
<g>
</g>
<g>
</g>
<g>
</g>
<g>
</g>
<g>
</g>
<g>
</g>
<g>
</g>
<g>
</g>
</svg>
